# xmcd
#
# Track frame offsets: 
#        150
#        18670
#        35395
#        53995
#        65220
#        79010
#        89477
#        102550
#        122927
#        141042
#
# Disc length: 2092 seconds
#
# Revision: 3
# Processed by: cddbd v1.5.2PL0 Copyright (c) Steve Scherf et al.
# Submitted via: ExactAudioCopy v1.0b1
#
DISCID=90082a0a
DTITLE=Johnnie Taylor - The Johnny Taylor Philosophy Continues
DYEAR=1969
DGENRE=Blues
TTITLE0=(I Wanna) Testify
TTITLE1=Separation Line
TTITLE2=Love Bones
TTITLE3=Love Is A Hurting Thing
TTITLE4=I Had A Fight With Love
TTITLE5=I Could Never Be President
TTITLE6=It's Amazing
TTITLE7=Who Can I Turn To
TTITLE8=Games People Play
TTITLE9=It's Your Thing
EXTD=
EXTT0=
EXTT1=
EXTT2=
EXTT3=
EXTT4=
EXTT5=
EXTT6=
EXTT7=
EXTT8=
EXTT9=
PLAYORDER=
